<?xml version="1.0" standalone="no"?>
<!DOCTYPE svg PUBLIC "-//W3C//DTD SVG 20010904//EN"
 "http://www.w3.org/TR/2001/REC-SVG-20010904/DTD/svg10.dtd">
<svg version="1.0" xmlns="http://www.w3.org/2000/svg"
 width="50.000000pt" height="50.000000pt" viewBox="0 0 50.000000 50.000000"
 preserveAspectRatio="xMidYMid meet">

<g transform="translate(0.000000,50.000000) scale(0.100000,-0.100000)"
fill="#000000" stroke="none">
<path d="M95 458 c-136 -118 -105 -341 57 -422 60 -30 147 -35 203 -12 43 18
49 42 8 30 -16 -5 -62 -9 -105 -9 -69 0 -81 3 -120 30 -122 86 -132 268 -21
365 24 21 32 35 25 42 -6 6 -22 -2 -47 -24z"/>
<path d="M185 451 c-140 -64 -155 -255 -27 -345 132 -93 311 3 312 167 0 144
-152 240 -285 178z m135 -19 c0 -4 -8 -12 -18 -19 -15 -9 -23 -7 -43 8 l-24
19 43 0 c23 0 42 -3 42 -8z m-86 -31 c17 -19 17 -20 -14 -36 -27 -14 -34 -15
-41 -3 -10 16 -11 22 -3 42 8 22 37 20 58 -3z m161 -11 c21 -23 21 -22 -22
-44 -40 -20 -38 -21 -57 9 -15 23 -15 25 11 39 37 20 47 20 68 -4z m-245 -38
c0 -21 -7 -32 -25 -40 -29 -14 -30 -11 -9 34 20 41 34 44 34 6z m147 -19 c13
-20 12 -23 -32 -48 -25 -15 -47 -26 -49 -24 -9 10 -27 51 -24 54 15 14 75 44
82 42 5 -2 16 -13 23 -24z m141 -29 c2 -23 -3 -32 -28 -46 -30 -17 -30 -17
-45 12 -14 27 -14 29 18 49 40 26 51 23 55 -15z m-263 -33 c14 -29 14 -30 -22
-51 -29 -17 -38 -18 -44 -8 -21 32 -1 67 48 87 1 1 9 -12 18 -28z m166 -18
c10 -28 9 -30 -43 -58 -34 -19 -33 -19 -52 9 -16 25 -15 25 27 50 52 32 55 32
68 -1z m83 -58 c-12 -26 -19 -33 -25 -23 -15 23 -10 45 14 55 30 14 31 10 11
-32z m-200 -10 c16 -25 16 -25 -19 -42 -33 -16 -36 -16 -55 2 -27 24 -26 29
13 48 42 21 42 21 61 -8z m141 -31 c0 -36 -23 -42 -55 -16 l-24 19 30 16 c38
21 49 17 49 -19z m-80 -34 c18 -20 17 -20 -23 -20 -44 0 -54 12 -24 29 24 14
26 14 47 -9z"/>
</g>
</svg>
